<svg xmlns="http://www.w3.org/2000/svg" width="50" height="50" viewBox="0 0 50 50">
  <defs>
    <style>
      .cls-1 {
        fill: #fff;
        stroke: #b3b3b3;
        stroke-width: 2px;
      }

      .cls-2 {
        fill: #363636;
        fill-rule: evenodd;
      }
    </style>
  </defs>
  <circle class="cls-1" cx="24.797" cy="24.797" r="24.797"/>
  <path id="NO_IMAGE_AVALIABLE" data-name="NO IMAGE AVALIABLE" class="cls-2" d="M9.653,22.357v-3.75l2.506,3.75h0.648V17.585H12.2v3.747L9.7,17.585H9.048v4.772H9.653Zm4.3-1.133a2.094,2.094,0,0,0,.8.889,2.256,2.256,0,0,0,1.2.326,2.372,2.372,0,0,0,1.159-.295,2,2,0,0,0,.83-0.867,2.812,2.812,0,0,0,.293-1.3,2.859,2.859,0,0,0-.278-1.281,2.062,2.062,0,0,0-.809-0.881,2.285,2.285,0,0,0-1.191-.316,2.169,2.169,0,0,0-1.647.672,2.593,2.593,0,0,0-.638,1.86A2.693,2.693,0,0,0,13.95,21.224Zm0.861-2.72a1.615,1.615,0,0,1,1.154-.461,1.562,1.562,0,0,1,.851.239,1.514,1.514,0,0,1,.576.674,2.445,2.445,0,0,1,.2,1.017,2.027,2.027,0,0,1-.461,1.422,1.618,1.618,0,0,1-2.337,0,1.912,1.912,0,0,1-.464-1.359A2.058,2.058,0,0,1,14.811,18.5Zm6.834,3.853V17.585H21.014v4.772h0.631Zm1.7,0V18.294l1.38,4.063H25.3l1.387-3.994v3.994h0.609V17.585h-0.85L25.3,20.9q-0.172.5-.254,0.765-0.072-.234-0.228-0.706l-1.13-3.379h-0.95v4.772h0.609Zm5.111,0,0.524-1.445h2l0.557,1.445h0.719L30.3,17.585h-0.68l-1.833,4.772h0.671ZM29.689,19a6.086,6.086,0,0,0,.257-0.911q0.111,0.387.338,0.989l0.5,1.322H29.165Zm6.706,1.488v0.889a2.066,2.066,0,0,1-.592.337,2.118,2.118,0,0,1-.8.158,1.98,1.98,0,0,1-.892-0.208,1.406,1.406,0,0,1-.64-0.638,2.33,2.33,0,0,1-.22-1.068,2.5,2.5,0,0,1,.182-0.96,1.652,1.652,0,0,1,.3-0.472,1.4,1.4,0,0,1,.509-0.347,1.935,1.935,0,0,1,.749-0.132,1.671,1.671,0,0,1,.657.125,1.1,1.1,0,0,1,.456.334,1.764,1.764,0,0,1,.267.573l0.57-.156a2.073,2.073,0,0,0-.361-0.781,1.553,1.553,0,0,0-.656-0.467,2.5,2.5,0,0,0-.936-0.168,2.627,2.627,0,0,0-1.26.293,1.938,1.938,0,0,0-.838.9,2.954,2.954,0,0,0-.291,1.3,2.74,2.74,0,0,0,.293,1.273,1.99,1.99,0,0,0,.867.871,2.71,2.71,0,0,0,1.278.3,2.848,2.848,0,0,0,1.016-.187,3.57,3.57,0,0,0,.96-0.558V19.922l-2.021,0v0.56h1.4Zm5.124,1.872V21.793h-2.93V20.169h2.64v-0.56h-2.64V18.148h2.819V17.585H37.957v4.772h3.561Zm-33.128,8,0.524-1.445h2l0.557,1.445h0.719l-1.953-4.772H9.552L7.72,30.357H8.39ZM9.621,27a6.087,6.087,0,0,0,.257-0.911q0.111,0.387.339,0.989l0.5,1.322H9.1Zm4.587,3.359,1.868-4.772H15.431l-1.289,3.467q-0.147.391-.257,0.781-0.1-.364-0.251-0.781l-1.24-3.467H11.711l1.849,4.772h0.648Zm2.087,0,0.524-1.445h2l0.557,1.445h0.719l-1.953-4.772h-0.68l-1.833,4.772h0.671ZM17.524,27a6.086,6.086,0,0,0,.257-0.911q0.111,0.387.338,0.989l0.5,1.322H17Zm6.025,3.359V29.793H21.2V25.585H20.568v4.772H23.55Zm1.491,0V25.585H24.409v4.772h0.632Zm1.26,0,0.524-1.445h2l0.557,1.445H30.1l-1.953-4.772h-0.68L25.63,30.357H26.3ZM27.531,27a6.086,6.086,0,0,0,.257-0.911q0.111,0.387.338,0.989l0.5,1.322H27.007Zm4.863,3.359a3.177,3.177,0,0,0,.77-0.08,1.459,1.459,0,0,0,.522-0.236,1.206,1.206,0,0,0,.35-0.444,1.394,1.394,0,0,0,.142-0.623,1.16,1.16,0,0,0-.233-0.723,1.247,1.247,0,0,0-.666-0.433,1.185,1.185,0,0,0,.5-0.436,1.082,1.082,0,0,0,.166-0.576,1.176,1.176,0,0,0-.187-0.63,1.129,1.129,0,0,0-.518-0.446,2.217,2.217,0,0,0-.877-0.145h-1.79v4.772h1.82Zm-1.188-4.209H32.16a2.723,2.723,0,0,1,.726.067,0.577,0.577,0,0,1,.326.247,0.768,0.768,0,0,1,.114.418,0.684,0.684,0,0,1-.122.417,0.669,0.669,0,0,1-.363.238,2.3,2.3,0,0,1-.6.055H31.206V26.148Zm0,2.005h1.1a2.35,2.35,0,0,1,.7.08,0.721,0.721,0,0,1,.379.277,0.793,0.793,0,0,1,.137.464,0.83,0.83,0,0,1-.094.4,0.691,0.691,0,0,1-.241.265,1.03,1.03,0,0,1-.365.13,2.737,2.737,0,0,1-.43.023H31.206V28.153Zm6.8,2.2V29.793h-2.35V25.585H35.021v4.772H38Zm4.326,0V29.793H39.4V28.169h2.64v-0.56H39.4V26.148h2.819V25.585h-3.45v4.772h3.561Z"/>
</svg>
