<svg xmlns="http://www.w3.org/2000/svg" width="120" height="120" viewBox="0 0 120 120">
  <defs>
    <style>
      .cls-1 {
        fill: #fff;
        stroke: #b3b3b3;
        stroke-width: 2px;
      }

      .cls-2 {
        fill: #363636;
        fill-rule: evenodd;
      }
    </style>
  </defs>
  <circle class="cls-1" cx="59.5" cy="59.5" r="59.5"/>
  <path id="NO_IMAGE_AVALIABLE" data-name="NO IMAGE AVALIABLE" class="cls-2" d="M23.168,53.656v-9l6.016,9h1.555V42.2H29.285v8.992L23.269,42.2H21.715V53.656h1.453ZM33.48,50.937a5.027,5.027,0,0,0,1.93,2.133,5.416,5.416,0,0,0,2.891.781,5.692,5.692,0,0,0,2.781-.707,4.8,4.8,0,0,0,1.992-2.082,6.749,6.749,0,0,0,.7-3.117,6.864,6.864,0,0,0-.668-3.074,4.95,4.95,0,0,0-1.941-2.113A5.484,5.484,0,0,0,38.308,42a5.206,5.206,0,0,0-3.953,1.613,6.224,6.224,0,0,0-1.531,4.465A6.464,6.464,0,0,0,33.48,50.937Zm2.066-6.527a3.876,3.876,0,0,1,2.77-1.105,3.749,3.749,0,0,1,2.043.574A3.631,3.631,0,0,1,41.742,45.5a5.867,5.867,0,0,1,.473,2.441,4.864,4.864,0,0,1-1.105,3.414,3.884,3.884,0,0,1-5.609.012A4.588,4.588,0,0,1,34.387,48.1,4.938,4.938,0,0,1,35.547,44.41Zm16.4,9.246V42.2H50.433V53.656h1.516Zm4.086,0v-9.75l3.313,9.75h1.367l3.328-9.586v9.586H65.5V42.2H63.465l-2.742,7.969q-0.414,1.211-.609,1.836-0.172-.562-0.547-1.7L56.855,42.2H54.574V53.656h1.461Zm12.266,0,1.258-3.469h4.789l1.336,3.469H77.41L72.722,42.2H71.09l-4.4,11.453H68.3Zm2.953-8.062a14.6,14.6,0,0,0,.617-2.187q0.266,0.93.813,2.375l1.2,3.172H70Zm16.094,3.57V51.3a4.958,4.958,0,0,1-1.422.809A5.083,5.083,0,0,1,84,52.484a4.752,4.752,0,0,1-2.141-.5,3.374,3.374,0,0,1-1.535-1.531A5.591,5.591,0,0,1,79.8,47.89a5.994,5.994,0,0,1,.438-2.3,3.968,3.968,0,0,1,.723-1.133,3.351,3.351,0,0,1,1.223-.832,4.646,4.646,0,0,1,1.8-.316,4.013,4.013,0,0,1,1.578.3,2.63,2.63,0,0,1,1.094.8,4.236,4.236,0,0,1,.641,1.375l1.367-.375a4.976,4.976,0,0,0-.867-1.875,3.726,3.726,0,0,0-1.574-1.121,5.991,5.991,0,0,0-2.246-.4,6.3,6.3,0,0,0-3.023.7,4.65,4.65,0,0,0-2.012,2.152,7.088,7.088,0,0,0-.7,3.121,6.579,6.579,0,0,0,.7,3.055,4.776,4.776,0,0,0,2.082,2.09,6.5,6.5,0,0,0,3.066.723,6.837,6.837,0,0,0,2.438-.449,8.569,8.569,0,0,0,2.3-1.34v-4.25l-4.852.008v1.344h3.367Zm12.3,4.492V52.3H92.613v-3.9h6.336V47.062H92.613V43.554h6.766V42.2H91.1V53.656h8.547Zm-79.508,19.2,1.258-3.469h4.789l1.336,3.469h1.726L24.558,61.4H22.926l-4.4,11.453h1.609Zm2.953-8.062a14.608,14.608,0,0,0,.617-2.187q0.265,0.93.813,2.375l1.2,3.172H21.832ZM34.1,72.856L38.582,61.4H37.035l-3.094,8.32q-0.352.938-.617,1.875-0.242-.875-0.6-1.875L29.746,61.4H28.105l4.438,11.453H34.1Zm5.008,0,1.258-3.469h4.789l1.336,3.469h1.727L43.527,61.4H41.894L37.5,72.856h1.609Zm2.953-8.062a14.584,14.584,0,0,0,.617-2.187q0.266,0.93.813,2.375l1.2,3.172H40.8Zm14.461,8.063V71.5H50.879V61.4H49.363V72.856h7.156Zm3.578,0V61.4H58.582V72.856H60.1Zm3.023,0,1.258-3.469h4.789L70.5,72.856H72.23L67.543,61.4H65.91l-4.4,11.453h1.609Zm2.953-8.062a14.608,14.608,0,0,0,.617-2.187q0.266,0.93.813,2.375l1.2,3.172H64.816Zm11.672,8.063a7.622,7.622,0,0,0,1.848-.191,3.5,3.5,0,0,0,1.254-.566,2.9,2.9,0,0,0,.84-1.066,3.346,3.346,0,0,0,.34-1.5,2.784,2.784,0,0,0-.559-1.734,2.992,2.992,0,0,0-1.6-1.039,2.846,2.846,0,0,0,1.2-1.047,2.6,2.6,0,0,0,.4-1.383,2.822,2.822,0,0,0-.449-1.512,2.709,2.709,0,0,0-1.242-1.07,5.32,5.32,0,0,0-2.106-.348h-4.3V72.856h4.367Zm-2.852-10.1h2.289a6.529,6.529,0,0,1,1.742.16,1.385,1.385,0,0,1,.781.594,1.842,1.842,0,0,1,.273,1,1.643,1.643,0,0,1-.293,1,1.607,1.607,0,0,1-.871.57,5.525,5.525,0,0,1-1.445.133H74.894V62.754Zm0,4.813h2.648a5.644,5.644,0,0,1,1.676.191,1.732,1.732,0,0,1,.91.664,1.9,1.9,0,0,1,.328,1.113,1.993,1.993,0,0,1-.227.965,1.659,1.659,0,0,1-.578.637,2.472,2.472,0,0,1-.875.313,6.559,6.559,0,0,1-1.031.055H74.894V67.567Zm16.313,5.289V71.5H85.566V61.4H84.051V72.856h7.156Zm10.383,0V71.5H94.558v-3.9h6.336V66.262H94.558V62.754h6.766V61.4H93.043V72.856h8.547Z"/>
</svg>
